<?xml version="1.0" encoding="utf-8"?>
<!-- Generator: Adobe Illustrator 22.1.0, SVG Export Plug-In . SVG Version: 6.00 Build 0)  -->
<svg version="1.1" id="Layer_1" xmlns="http://www.w3.org/2000/svg" xmlns:xlink="http://www.w3.org/1999/xlink" x="0px" y="0px"
	 viewBox="0 0 1024 768" style="enable-background:new 0 0 1024 768;" xml:space="preserve">
<style type="text/css">
	.st0{fill:none;stroke:#C69C6D;stroke-width:7;stroke-miterlimit:10;}
	.st1{fill:#4CAF50;}
	.st2{fill:#83C07E;}
	.st3{clip-path:url(#SVGID_2_);}
	.st4{clip-path:url(#SVGID_4_);}
	.st5{clip-path:url(#SVGID_6_);}
	.st6{fill:none;stroke:#C69C6D;stroke-width:5;stroke-miterlimit:10;}
	.st7{clip-path:url(#SVGID_8_);}
	.st8{fill:#39833C;}
	.st9{fill:#926D5A;}
	.st10{fill:#816A41;}
	.st11{fill:#E6E6E6;}
	.st12{fill:#FFFFFF;}
	.st13{fill:#291754;}
	.st14{fill:#FFD3CB;}
	.st15{fill:#CEA28B;}
	.st16{fill:#512DA8;}
	.st17{fill:none;stroke:#000000;stroke-miterlimit:10;}
	.st18{fill:none;stroke:#000000;stroke-width:2;stroke-miterlimit:10;}
	.st19{fill:#808080;}
	.st20{fill:#B3B3B3;}
	.st21{fill:none;stroke:#808080;stroke-width:6;stroke-miterlimit:10;}
	.st22{fill:none;stroke:#B3B3B3;stroke-width:3;stroke-miterlimit:10;}
	.st23{fill:#333333;}
	.st24{fill:#4D4D4D;}
	.st25{fill:#3F51B5;}
	.st26{fill:#AC8D56;}
	.st27{clip-path:url(#SVGID_10_);}
	.st28{fill:#303F9F;}
	.st29{fill:#543E36;}
	.st30{stroke:#000000;stroke-miterlimit:10;}
	.st31{fill:#20295B;}
	.st32{fill:none;}
</style>
<title>cyc-pedArtboard 1@2x1</title>
<line class="st0" x1="329.1" y1="635.3" x2="329.1" y2="756.4"/>
<path class="st1" d="M354.9,633.3c0,39.9-11.6,46.7-26,46.7c-14.4,0-26-6.8-26-46.7c0-39.9,11.6-97.8,26-97.8
	C343.3,535.5,354.9,593.4,354.9,633.3z"/>
<path class="st2" d="M303.1,633.3c0-39.9,11.6-97.8,26-97.8"/>
<g>
	<g>
		<g>
			<defs>
				<path id="SVGID_1_" d="M354.9,633.3c0,39.9-11.6,46.7-26,46.7c-14.4,0-26-6.8-26-46.7c0-39.9,11.6-97.8,26-97.8
					C343.3,535.5,354.9,593.4,354.9,633.3z"/>
			</defs>
			<clipPath id="SVGID_2_">
				<use xlink:href="#SVGID_1_"  style="overflow:visible;"/>
			</clipPath>
			<g class="st3">
				<path class="st2" d="M346.9,617.2c0,39.9-11.6,50.8-26,50.8s-26-10.8-26-50.8s11.6-97.8,26-97.8S346.9,577.3,346.9,617.2z"/>
			</g>
		</g>
	</g>
</g>
<line class="st0" x1="963.3" y1="632.6" x2="963.3" y2="745.6"/>
<path class="st1" d="M987.4,630.8c0,37.2-10.8,43.6-24.3,43.6s-24.3-6.3-24.3-43.6c0-37.3,10.8-91.3,24.3-91.3
	S987.4,593.6,987.4,630.8z"/>
<path class="st2" d="M939,630.8c0-37.2,10.8-91.3,24.3-91.3"/>
<g>
	<g>
		<g>
			<defs>
				<path id="SVGID_3_" d="M987.4,630.8c0,37.2-10.8,43.6-24.3,43.6s-24.3-6.3-24.3-43.6c0-37.3,10.8-91.3,24.3-91.3
					S987.4,593.6,987.4,630.8z"/>
			</defs>
			<clipPath id="SVGID_4_">
				<use xlink:href="#SVGID_3_"  style="overflow:visible;"/>
			</clipPath>
			<g class="st4">
				<path class="st2" d="M979.9,615.7c0,37.2-10.8,47.3-24.3,47.3s-24.3-10.1-24.3-47.3s10.8-91.3,24.3-91.3
					S979.9,578.4,979.9,615.7z"/>
			</g>
		</g>
	</g>
</g>
<line class="st0" x1="751.2" y1="635.2" x2="751.2" y2="695.6"/>
<path class="st1" d="M764.2,634.3c0,19.8-5.8,23.3-12.9,23.3c-7.1,0-12.9-3.3-12.9-23.3c0-20,5.8-48.7,12.9-48.7
	C758.4,585.7,764.2,614.4,764.2,634.3z"/>
<path class="st2" d="M738.4,634.3c0-19.8,5.8-48.7,12.9-48.7"/>
<g>
	<g>
		<g>
			<defs>
				<path id="SVGID_5_" d="M764.2,634.3c0,19.8-5.8,23.3-12.9,23.3c-7.1,0-12.9-3.3-12.9-23.3c0-20,5.8-48.7,12.9-48.7
					C758.4,585.7,764.2,614.4,764.2,634.3z"/>
			</defs>
			<clipPath id="SVGID_6_">
				<use xlink:href="#SVGID_5_"  style="overflow:visible;"/>
			</clipPath>
			<g class="st5">
				<path class="st2" d="M760.2,626.2c0,19.8-5.8,25.3-12.9,25.3c-7.1,0-12.9-5.4-12.9-25.3s5.8-48.7,12.9-48.7
					C754.4,577.5,760.2,606.4,760.2,626.2z"/>
			</g>
		</g>
	</g>
</g>
<line class="st6" x1="461.7" y1="641.7" x2="461.7" y2="709.9"/>
<path class="st1" d="M476.4,640.6c0,22.4-6.5,26.2-14.5,26.2c-8,0-14.5-3.8-14.5-26.2s6.5-55.1,14.5-55.1
	C469.9,585.5,476.4,618.2,476.4,640.6z"/>
<path class="st2" d="M447.2,640.6c0-22.4,6.5-55.1,14.5-55.1"/>
<g>
	<g>
		<g>
			<defs>
				<path id="SVGID_7_" d="M476.4,640.6c0,22.4-6.5,26.2-14.5,26.2c-8,0-14.5-3.8-14.5-26.2s6.5-55.1,14.5-55.1
					C469.9,585.5,476.4,618.2,476.4,640.6z"/>
			</defs>
			<clipPath id="SVGID_8_">
				<use xlink:href="#SVGID_7_"  style="overflow:visible;"/>
			</clipPath>
			<g class="st7">
				<path class="st2" d="M471.8,631.5c0,22.4-6.5,28.6-14.5,28.6c-8,0-14.5-6.2-14.5-28.6s6.5-55.1,14.5-55.1
					C465.3,576.4,471.8,609.1,471.8,631.5z"/>
			</g>
		</g>
	</g>
</g>
<path class="st1" d="M1024,697.9c-104.1-24.8-244.5-35.4-398-26C443,683,281.9,719.8,180.6,768H1024V697.9z"/>
<ellipse class="st8" cx="678.4" cy="703.9" rx="202" ry="8.6"/>
<g id="pants">
	<path class="st9" d="M641.7,663.3v28.2c0,0,11.6,0.4,11.6,0c-0.7-3.8-1-7.6-0.7-11.5c0.2-7.1,1.8-18.7,1.8-18.7L641.7,663.3z"/>
	<path class="st10" d="M608.6,496.8l11.3,95.2l16.6,76.4h18.8c0,0,3.3-63.4-8.3-74.5c0,0,11.9-68.6,11.6-78.6
		c-0.4-7.3-1.1-14.4-2.2-21.6l-47.2,3.4"/>
	<path d="M640.1,685.1l0.6-2.7c0.1-0.2,0.4-0.5,0.7-0.4c0.2,0,0.4,0.2,0.4,0.5l0.2,2.6c0,0,10.6,0.2,10.7,1c0.1,0.5,1.7,9,2.5,13.4
		c0.2,1.6,0.5,2.7,0.5,2.7h-45.1c-0.2-0.7-0.4-1.4-0.4-2.1c0-2,0.9-4.6,5.7-4.4h3.2c3.7,0,7.1-1.4,10-3.7c3.1-2.6,7.3-5.8,11-6.5
		V685.1z"/>
	<path class="st11" d="M610.3,699.7h45.1l0.5,2.5h-45.2C610.4,701.5,610.3,700.6,610.3,699.7z"/>
</g>
<g id="Layer_7">
	<path class="st12" d="M624.3,141.6c-5-1.4-10.2-2.1-15.5-2.1c-4.3,0-8.5,0.4-12.7,1.4c-6,1.4-13.5,0.9-18.5-1
		c-8.5-3.3-19.8-5.3-32.2-5.3c-9.2-0.1-18.4,1.1-27.2,3.6c-6.9,2-16.2,1.5-21.2-1.4c-10.5-6-27.1-9.9-45.8-9.9
		c-27.2,0-50,8.2-55.8,19.3h238.1C633.4,146.2,628.2,142.8,624.3,141.6z"/>
	<path class="st12" d="M920.6,175.3c-6.1-8.6-19.3-14.4-34.6-14.4c-12.5,0.1-23.5,4.1-30.5,10.2c-3.3,2.9-9.5,3.5-14.1,1.5
		c-5.7-2.5-11.9-3.7-18.2-3.7c-9.2,0-17.6,2.6-23.4,6.8L920.6,175.3z"/>
</g>
<g id="pedestrian">
	<path d="M800.2,498c-1.8,0.9-31.8-23.3-30.9-40.3s37.6-33.9,37.6-33.9S835.4,481.6,800.2,498z"/>
	<path d="M822.2,338L822.2,338c4.9,0,8.9,3.9,8.9,8.9v9.1c0,4.9-3.9,8.9-8.9,8.9l0,0c-4.9,0-8.9-3.9-8.9-8.9v-9.1
		C813.3,342,817.4,338,822.2,338z"/>
	<ellipse cx="808.9" cy="350.5" rx="5.9" ry="8.3"/>
	<path d="M811.4,348.8c-0.4,0-0.9,0-1.2,0c6.4,0.9,11.8,3,15.4,5.7C821.7,350.7,816.7,348.8,811.4,348.8z"/>
	<path d="M798.1,370.2c-13.3,3.6-25.9,18.2-21.8,28c3.3,8,17.4,11.9,27.5,7.4c13.4-6,17.7-26.4,11.1-33.4
		C809.9,367,800,369.6,798.1,370.2z"/>
	<path d="M829.7,361.8c0-2.7-1.5-5.2-4.2-7.3c2.1,2.1,3.6,4.7,4.2,7.5V361.8z"/>
	<path d="M821.1,353.1c-6.8,0-12.4,6.7-12.9,15.2c9-3.2,20.9-7.4,20.9-7.4s0.2,13.7-2.2,23.7c4.3-2.7,7.3-8.4,7.3-14.9
		C834.2,360.5,828.2,353.1,821.1,353.1z"/>
	<path class="st13" d="M751.2,618.9c0,0,52,57.2,110.9,8.3c0,0-88.5-24-99.2-16.9C752.2,617.5,751.2,618.9,751.2,618.9z"/>
	<path class="st14" d="M814,619.3c-0.1,10.1,0.4,20.1,1.7,30.1c2.6,18.6,2.2,38.4,1.7,43.4c1.7,0,11.6,4.1,11.6,0
		c0-4.1,5.9-66.2,5.3-68.5C833.7,621.9,814,619.3,814,619.3z"/>
	<path class="st14" d="M801.3,377.6l0.9,35.1c0,0,14.5,4.2,17.7,0c1-1.4-3.2-11-3-25L801.3,377.6z"/>
	<path class="st15" d="M801.6,380.2c0,0,7.6,18.2,16,19.2l-0.6-6.3C817,393.1,808.2,394.6,801.6,380.2z"/>
	<path class="st14" d="M829.1,360.8c0,0,0.6,32.5-9.1,34c0,0-11.2,6.2-21.8-22.8C799.2,371.2,829.1,360.8,829.1,360.8z"/>
	<path d="M829.7,362.1c-0.7-2.8-2.2-5.4-4.2-7.5c-3.4-2.7-9-4.8-15.4-5.7c-9.7,0.6-17.5,7.9-17.5,16.8c0,3.2,1.1,6.4,3,9.1
		c2.5,0.4,5.1,0.5,7.5,0.5C817.6,375.3,829.5,369.3,829.7,362.1z"/>
	<ellipse transform="matrix(0.8935 -0.449 0.449 0.8935 -84.514 399.5082)" class="st14" cx="800.1" cy="378" rx="4.3" ry="6.3"/>
	<path class="st14" d="M771.8,475.9c5.1-8.3,10.5-9.1,21.2-9.4c10.7-0.2,25.3-7.1,28.6-8.4c4.1-1.5,7.5-5.7,10.6-8.6
		c0.1-0.1,0.4-0.2,0.5-0.4c0.2,0,0.5,0,0.7,0c0.9,0.1,7.6,1.4,10.7,1.7c0.6,0.1,1.1,0.7,1,1.4c0,0.1,0,0.1,0,0.2
		c-1,2.5-2.7,7-3.2,8.1c-0.6,1.6-6.5,1.6-8,1.7c-4.2,0.5-7.4,1.1-11.1,3.4c-8.1,5.2-17.2,9.2-26,13.3c-3.9,1.7-8,3.4-12.1,4.8
		c-2.6,0.9-5.7,2-8.5,1.7c-9.2-0.9-2.3-40.4,0.9-50.5c3.2-10.1,4.2-27.1,33.6-26.5c24.3,0.5,26.4,13.8,26.4,18.5
		c0,0,8.6,6.8-2.5,10.3c-11.1,3.6-39.7,0.1-42.7,2.2c-3.1,2.1-0.2,28.8-0.2,28.8"/>
	<path class="st12" d="M798.6,485.4h42.9c0,0,2.1-44.7,2.3-50.1c0.2-5.4,2.1-1.7-5.4-7.3c-7.5-5.5-15.2-13.1-18.5-18.4
		c-0.4-0.6,1.6,5.9-13.7,2.7c-7.8-1.6-14.3,10.7-15.8,22.4c-0.7,6.3,8.5,8.7,10.6,23.4C804.5,483.7,798.6,485.4,798.6,485.4z"/>
	<path d="M777.2,435.1c2.2-7.3,3.4-18,14.8-23.3c-0.4,0-0.7,0-1,0c-11,0-20,12.1-20.8,27.5l0,0l-1.2,21.9c0.2,2.8,1.2,5.5,2.7,7.9
		C772.6,457.5,775.5,440.4,777.2,435.1z"/>
	<path class="st12" d="M792.3,466.7l1.7-23.9l-16.4-10.2c-4.3,14-6.3,28.7-5.8,43.4c0,0,0.7-2.5,5.2-5.8
		C782.3,466.3,792.3,466.7,792.3,466.7z"/>
	<path class="st14" d="M769.4,594.9c-8,18.8-15.3,38.8-18.6,58.9l-1.1,6.7c-1.8,10.8-5.2,21.6-7.9,32.2h12.3
		c0,0,20.2-53.2,22.8-57.7c2.6-4.4,17.9-34,17.9-34L769.4,594.9z"/>
	<path class="st16" d="M798.6,485.4c0,0-18.2,50.5-23.8,69.5c-4.2,14.4-23.5,64.1-23.5,64.1c7.6-2.1,15.6-1.7,23,1.4
		c12.2,5.1,49.3,39.8,88,6.9l-20.8-141.8H798.6z"/>
	<line class="st17" x1="831.9" y1="495" x2="850.3" y2="620.5"/>
	<line class="st17" x1="794.9" y1="526" x2="778.8" y2="609.7"/>
	<path class="st17" d="M810.4,532.9c0,0-15.2,52.2,5.1,61.5"/>
	<path class="st11" d="M816,690H829c0,0,23.2,12.9,23.2,13.6c0,0.2,0,0.5,0.1,0.6c0.2,0.7-0.2,1.6-1,1.8c-0.1,0-0.2,0-0.4,0h-34.6
		c-0.9,0-1.6-0.7-1.6-1.6v-0.1c0.2-2.1,0.6-5.4,1-7.5C816,694.6,816.2,692.2,816,690z"/>
	<path class="st11" d="M740.5,690.1h14.5c0.2,0,0.5,0.2,0.5,0.5c0,0.1,0,0.1-0.1,0.2c-1.1,1.6-1.7,3.4-1.8,5.3
		c0,3.7,2.7,9.9,1.4,9.9h-24.1c-0.4,0-0.7-0.4-0.7-0.7c0-0.1,0-0.2,0.1-0.4c0.4-0.6,0.7-1.2,1.2-1.8c3.9-5.2,8.6-11.2,8.6-11.2
		L740.5,690.1z"/>
	<path class="st14" d="M840.8,472.6c1-2.8,26.7-36.6,26.7-36.6s10-10,9.5-10.5s-8.4-9.9-8.4-9.9s-6.9,9.1-7.4,10.6
		c-0.5,1.5,2.8,4.8-3.2,9.6c-6,4.8-18.6,16.9-19,17.4C838.7,453.7,840.8,472.6,840.8,472.6z"/>
	<path class="st14" d="M875.1,408.4L875.1,408.4c0.6,0.4,0.7,1.1,0.2,1.7L865,424.8c-0.4,0.6-1.1,0.7-1.7,0.2l0,0
		c-0.6-0.4-0.7-1.1-0.2-1.7l10.3-14.7C873.7,408.1,874.4,408,875.1,408.4z"/>
	<path class="st15" d="M873.3,417L873.3,417c0.5,0.4,0.6,1.1,0.2,1.6l-5.7,8.1c-0.4,0.5-1.1,0.6-1.6,0.2l0,0
		c-0.5-0.4-0.6-1.1-0.2-1.6l5.7-8.1C872.1,416.8,872.8,416.6,873.3,417z"/>
	<path class="st15" d="M874.8,418.9L874.8,418.9c0.5,0.4,0.6,1.1,0.2,1.6l-5.7,8.1c-0.4,0.5-1.1,0.6-1.6,0.2l0,0
		c-0.5-0.4-0.6-1.1-0.2-1.6l5.7-8.1C873.6,418.7,874.3,418.5,874.8,418.9z"/>
	<path class="st15" d="M877.2,419.7L877.2,419.7c0.5,0.4,0.6,1.1,0.2,1.6l-5.7,8.1c-0.4,0.5-1.1,0.6-1.6,0.2l0,0
		c-0.5-0.4-0.6-1.1-0.2-1.6l5.7-8.1C875.9,419.5,876.7,419.4,877.2,419.7z"/>
	<path class="st15" d="M873.9,428.2L873.9,428.2c-0.5-0.4-0.6-1-0.2-1.5l5.1-7.4c0.4-0.5,1-0.6,1.5-0.2l0,0c0.5,0.4,0.6,1,0.2,1.5
		l-5.1,7.4C875.1,428.5,874.3,428.6,873.9,428.2z"/>
	<path class="st14" d="M873.9,416L873.9,416c0.5,0.4,0.6,1.1,0.2,1.6l-5.7,8.1c-0.4,0.5-1.1,0.6-1.6,0.2l0,0
		c-0.5-0.4-0.6-1.1-0.2-1.6l5.7-8.1C872.6,415.8,873.3,415.7,873.9,416z"/>
	<path class="st14" d="M875.4,418L875.4,418c0.5,0.4,0.6,1.1,0.2,1.6l-5.7,8.1c-0.4,0.5-1.1,0.6-1.6,0.2l0,0
		c-0.5-0.4-0.6-1.1-0.2-1.6l5.7-8.1C874.2,417.8,874.9,417.6,875.4,418z"/>
	<path class="st14" d="M877.8,418.7L877.8,418.7c0.5,0.4,0.6,1.1,0.2,1.6l-5.7,8.1c-0.4,0.5-1.1,0.6-1.6,0.2l0,0
		c-0.5-0.4-0.6-1.1-0.2-1.6l5.7-8.1C876.5,418.5,877.3,418.4,877.8,418.7z"/>
	<path class="st14" d="M874.4,427.4L874.4,427.4c-0.5-0.4-0.6-1-0.2-1.5l5.1-7.4c0.4-0.5,1-0.6,1.5-0.2l0,0c0.5,0.4,0.6,1,0.2,1.5
		l-5.1,7.4C875.7,427.5,874.9,427.6,874.4,427.4z"/>
	<path class="st12" d="M777.7,434.3c0,0,1.1-22.8,24.8-25.5c0,0-1.8,3.9,11.1,4.4c12.9,0.5-8,30.9-8,30.9s-8.9-3.9-12.7,0
		c-3.8,3.9-15.3,6.2-15.2,5.1C777.9,448.1,777.7,434.3,777.7,434.3z"/>
	<path d="M812.1,442.1c0-17.1-8.5-30.9-19.1-30.9c-2.7,0-5.3,0.9-7.5,2.5c0.5-0.1,1.1-0.1,1.6-0.1c10.5,0,19.1,12.2,19.1,27.3
		c0,6.8-1.8,13.3-5.4,19c0.6,3.2,0.9,6.4,1,9.6C808,464.4,812.1,454.1,812.1,442.1z"/>
	<path d="M842.7,466.2h-12.1c-1.1,0-2.1-0.9-2.1-2c0-0.1,0-0.2,0-0.4l4.4-26.6c0.1-1,1-1.7,2-1.7H847c1.1,0,2.1,0.9,2.1,2
		c0,0.1,0,0.2,0,0.4l-4.6,26.6C844.5,465.4,843.6,466.2,842.7,466.2z"/>
	<path class="st14" d="M771.8,475.9c5.1-8.3,10.5-9.1,21.2-9.4c10.7-0.2,25.3-7.1,28.6-8.4c4.1-1.5,7.5-5.7,10.6-8.6
		c0.1-0.1,0.4-0.2,0.5-0.4c0.2,0,0.5,0,0.7,0c0.9,0.1,7.6,1.4,10.7,1.7c0.6,0.1,1.1,0.7,1,1.4c0,0.1,0,0.1,0,0.2
		c-1,2.5-2.7,7-3.2,8.1c-0.6,1.6-6.5,1.6-8,1.7c-4.2,0.5-7.4,1.1-11.1,3.4c-8.1,5.2-17.2,9.2-26,13.3c-3.9,1.7-8,3.4-12.1,4.8
		c-2.6,0.9-5.7,2-8.5,1.7C773.2,485.4,772.1,482.3,771.8,475.9"/>
	<path class="st18" d="M792.1,354.9c0,5.8,4.7,10.5,10.5,10.5l0,0"/>
</g>
<g id="bike">
	<path class="st19" d="M697.2,541c0.4-1.5,9.9-27.7,9.9-27.7l9.4-6c0,0,9.4-0.4,9.1,0s-5.3,4.6-5.8,5.1c-0.5,0.5-1.5,3.2-2,3.3
		c-0.5,0.1-6,0-6.2,0.4s-0.1,0.2-8,25.7L697.2,541z"/>
	<path d="M692,501.3h43.1c0.7,0,7.6-1,7.6,0.1s-14.7,11.1-15,11.1l-6.8-0.1c0,0-15-4.8-15.8-4.8s-16.9-0.5-16.9-0.5
		S688.4,501.5,692,501.3z"/>
	<circle class="st19" cx="547.7" cy="635.4" r="7.9"/>
	<path d="M547.7,564.5c-39.2,0-71,31.8-71,71c0,39.2,31.8,71,71,71s71-31.8,71-71l0,0C618.7,596.3,586.9,564.5,547.7,564.5z
		 M547.7,695.6c-33.1,0-60.1-26.9-60.1-60.1s26.9-60.1,60.1-60.1s60.1,26.9,60.1,60.1l0,0C607.8,668.7,581,695.6,547.7,695.6
		L547.7,695.6L547.7,695.6z"/>
	<path class="st11" d="M547.7,566.9c-37.8,0-68.5,30.7-68.5,68.5s30.7,68.5,68.5,68.5s68.5-30.7,68.5-68.5l0,0
		C616.2,597.6,585.5,566.9,547.7,566.9z M547.7,692.6c-31.5,0-57-25.5-57-57s25.5-57,57-57s57,25.5,57,57
		C604.8,667,579.3,692.6,547.7,692.6L547.7,692.6z"/>
	<circle class="st19" cx="755.9" cy="635.4" r="7.9"/>
	<path d="M755.9,564.5c-39.2,0-71,31.8-71,71c0,39.2,31.8,71,71,71c39.2,0,71-31.8,71-71C826.9,596.3,795.1,564.5,755.9,564.5
		L755.9,564.5z M755.9,695.6c-33.1,0-60.1-26.9-60.1-60.1s26.9-60.1,60.1-60.1c33.3,0,60.1,26.9,60.1,60.1l0,0
		C816,668.7,789.1,695.6,755.9,695.6L755.9,695.6L755.9,695.6z"/>
	<path class="st11" d="M755.9,566.9c-37.8,0-68.5,30.7-68.5,68.5s30.7,68.5,68.5,68.5c37.8,0,68.5-30.7,68.5-68.5
		S793.7,566.9,755.9,566.9L755.9,566.9z M755.9,692.6c-31.5,0-57-25.5-57-57s25.5-57,57-57c31.5,0,57,25.5,57,57
		C813,667,787.5,692.6,755.9,692.6L755.9,692.6z"/>
	<path class="st19" d="M566.6,523h23.3c1.1,0,2.2,0.6,2.8,1.6l0,0c0.5,0.9,0.5,2,0.1,2.8l-3.8,8.1l-6.9-1.6l2.3-4.2l-14-1.5
		c-2.1-0.2-3.9-1.4-5.1-3.1l0,0c-0.5-0.7-0.2-1.6,0.5-2C566.1,523,566.3,523,566.6,523z"/>
	<polygon class="st20" points="581.5,533.8 589.7,535.8 588.6,538.1 581.1,535.3 	"/>
	<path class="st20" d="M574.2,560.4l7.8,1.5c0,0,0.1,2.2-0.5,2.2s-8.3-2.3-8.3-2.3L574.2,560.4z"/>
	<polygon points="573.2,561.9 546.1,635.6 552.2,635.2 581.5,564.1 	"/>
	<polygon points="696.8,543.2 695.8,546.9 701.4,549.6 703,543.8 	"/>
	<polygon class="st20" points="695.8,544 703.6,545.4 704.9,540.5 696.9,540.5 	"/>
	<circle class="st21" cx="668.8" cy="645.8" r="20"/>
	<path class="st9" d="M583.7,512c-0.4,0.1-17.4,5.7-17.4,5.7l4.4,5.3h4.4c0,0-2,5.9-2,6.2c0,0.2-0.2,0.7,1,0.7c1.2,0,6.5-7,6.5-7
		l1.1-2.1l4.7-5.2L583.7,512z"/>
	<polygon points="674.7,651.6 680.7,650.7 677.1,645.8 680.7,640.9 674.7,640 673.8,634 668.8,637.5 663.9,634 663,640 657,640.9 
		660.6,645.8 657,650.7 663,651.6 663.9,657.6 668.8,654 673.8,657.6 	"/>
	<path d="M668.8,626.8c-10.5,0-19,8.5-19,19c0,10.5,8.5,19,19,19c10.5,0,19-8.5,19-19C687.8,635.3,679.3,626.8,668.8,626.8
		L668.8,626.8z M679.7,650.2l2.1,4.2l-4.3,4.3l-4.2-2.1l-1.5,4.4h-6l-1.5-4.4l-4.2,2.1l-4.3-4.3l2.1-4.2l-4.4-1.5v-6l4.4-1.5
		l-2.1-4.2l4.3-4.3l4.2,2.1l1.5-4.4h6l1.5,4.4l4.2-2.1l4.3,4.3l-2.1,4.2l4.4,1.5v6L679.7,650.2z"/>
	<circle cx="567.2" cy="521" r="4.7"/>
	<path class="st22" d="M754.4,646.4c-1.2,0.4-74.8,19.1-82.2,19.5c-5.7,0.4-23.9-0.2-24.4-20.2s20.6-20.6,20.6-20.6h87.8
		c5.7,0.1,10.1,4.8,10.1,10.5C766.4,643.4,759.6,644.9,754.4,646.4z"/>
	<circle class="st23" cx="567.2" cy="521" r="3.4"/>
	<path d="M759.3,633c0.4-0.4,0.5-0.9,0.1-1.4l-43-60.4l-15-21.6c-0.1-0.1-0.2-0.2-0.4-0.4l-5.1-2.5c-0.1-0.1-0.2-0.1-0.4-0.1
		l-107.2-4.2c-0.5,0-1-0.5-1-1c0-0.1,0-0.2,0-0.2l0.7-2.2c0.1-0.5-0.1-1-0.6-1.2l-5.2-2c-0.5-0.2-1.1,0-1.2,0.6c0,0,0,0,0,0.1
		l-6.8,22.9c-0.1,0.5,0.1,1.1,0.7,1.2l0,0l5.8,1.1c0.5,0.1,1-0.2,1.1-0.7l0,0c0.1-0.5,0.7-0.9,1.2-0.7c0.1,0,0.4,0.1,0.5,0.2
		l77.7,85.1c0.1,0.1,0.2,0.4,0.2,0.6c0.2,3.2,2.8,5.9,6,6.3l0,0h0.1c0.2,0,0.5,0,0.7,0c2.6,0,4.9-1.4,6.2-3.7
		c0.1-0.2,0.4-0.5,0.7-0.5l79-11.9c0.1,0,0.4-0.1,0.5-0.2L759.3,633z M585.5,549.7l107.1,4.7c0.5,0,1,0.5,1,1.1v0.1l-24.8,82.7
		c-0.1,0.5-0.5,0.7-1,0.7c-1,0-1.6-0.1-2.2,0.4c-0.4,0.2-1,0.2-1.4-0.1l-79.7-87.1c-0.2-0.2-0.4-0.6-0.2-1l0.2-0.7
		C584.7,549.9,585.1,549.6,585.5,549.7L585.5,549.7z M752.2,632.7c0,0.5-63.8,9.2-76,10.8c-0.5,0-0.9-0.2-1.1-0.6
		c-0.5-1.2-1.4-2.2-2.5-3c-0.4-0.2-0.6-0.7-0.4-1.1l26.2-81.1c0.1-0.5,0.7-0.9,1.2-0.6c0.2,0.1,0.4,0.2,0.5,0.4l52.6,71.7
		c0.2,0.2,0.2,0.6,0.1,1C752.7,631,752.4,631.9,752.2,632.7L752.2,632.7z"/>
	<path class="st24" d="M673.5,647.5l-18.2,43.9c-0.7,1.8-2.8,2.7-4.6,2c-1.8-0.7-2.7-2.7-2.1-4.6l15.8-44.8c0.9-2.6,3.7-3.9,6.3-3.1
		c2.6,0.9,3.9,3.7,3.1,6.3l0,0L673.5,647.5z"/>
</g>
<g id="cyclist">
	<path d="M557.2,402.7L557.2,402.7c0.5-0.2,1.1-0.1,1.4,0.4l13.7,23.9c0.2,0.5,0.1,1.1-0.4,1.4l0,0c-0.5,0.2-1.1,0.1-1.4-0.4
		l-13.7-23.9C556.5,403.6,556.7,403,557.2,402.7z"/>
	<path class="st25" d="M585.4,505.3c0.7-0.9,32.2-24,32.2-24l8.1,9.9l-2.5,9.4c0,0-30.6,16.1-30.7,15.9L585.4,505.3z"/>
	<path class="st9" d="M644.1,664.6v28.2c0,0,11.6,0.4,11.6,0c-0.7-3.8-1-7.6-0.7-11.5c0.2-7.1,1.8-18.7,1.8-18.7L644.1,664.6z"/>
	<path class="st26" d="M610.9,498.2l11.5,95.2l16.6,76.4h18.8c0,0,3.3-63.4-8.3-74.5c0,0,11.9-68.6,11.6-78.6
		c-0.4-7.3-1.1-14.4-2.2-21.6l-47.2,3.4"/>
	<g>
		<g>
			<g>
				<defs>
					<path id="SVGID_9_" d="M610.9,498.2l11.5,95.2l16.6,76.4h18.8c0,0,3.3-63.4-8.3-74.5c0,0,11.9-68.6,11.6-78.6
						c-0.4-7.3-1.1-14.4-2.2-21.6l-47.2,3.4"/>
				</defs>
				<clipPath id="SVGID_10_">
					<use xlink:href="#SVGID_9_"  style="overflow:visible;"/>
				</clipPath>
				<g class="st27">
					<path class="st10" d="M612.4,501c0.1,0,1,1.4,1.1,1.5c1.1,1.2,2.3,2.3,3.6,3.4c2.8,2.2,6,3.9,9.6,5.2c6.9,2.3,14.2,3,21.2,4.8
						c3.1,0.9,6,1.7,9,2.7c0.4,0.1,4.9,1.4,4.9,1.7c0-0.6-0.6-9.6-0.9-11.7c-0.2-2.8-0.2-5.8,0-8.6L612.4,501z"/>
				</g>
			</g>
		</g>
	</g>
	<path class="st28" d="M622.6,390.5c-1.2,0.6-5.2,4.4-6.4,31.3c-1.2,26.9-8,80.3-8,80.3s4.6-1.8,13.7,3s12.4,3.8,22.3,3.8
		c9.9,0,23.7,1,22.7,0c-1-1-5.7-19.7-5.7-23.5c0-3.8,4.2-58,5.1-69.5s-0.5-18.4-7.9-23.2C647.4,386.1,634.1,385.4,622.6,390.5z"/>
	<path class="st28" d="M581.2,510.3l5.4-3.2l2.7,4.2l2.7,4.3l-4.7,3.1L581.2,510.3z"/>
	<path class="st9" d="M627.6,386.5l-5.4-11.5l13.2-14.2l9.5,20.5c0,0-3.4,7-10.3,6.9C627.6,388.1,627.6,386.5,627.6,386.5z"/>
	<path class="st29" d="M626.2,383.6c0,0,13.7-12.2,10.2-20.3c-0.9,0.7-10.7,15.9-10.8,16.1s-0.4,2.3-0.4,2.3L626.2,383.6z"/>
	<path class="st9" d="M609.2,374.8l7,9.5c1.1,1.5,3.1,1.8,4.6,0.9c5.7-3.6,18.1-13.3,16-28.2c-2.7-19.3-26.2-28.2-34.6-13.4
		c0,0-4.1,8.5,0.5,15.6c2.6,4.1,2.6,5.7,2.7,7.4c0,0-1.1,6.8,0.1,7.9C606.7,375.5,609.2,374.8,609.2,374.8z"/>
	<path class="st30" d="M599.1,345.8c0,0-1.7,4.2,9-0.4l5.7,7.6l2.8-1l5.4,6.4l2-2c0,0,5.7-6.9,7.9-0.7c1.2,3.6,3.4,4.7,5.1,4.9
		c1.1,0.2,2.3-0.5,2.6-1.6c0-0.1,0-0.1,0-0.2c0.2-6-2.8-18.6-10.6-25.3c-5.3-4.6-9.9-3.9-17.6-0.4
		C599.5,338.7,599.1,345.8,599.1,345.8z"/>
	<path class="st25" d="M625.2,386.8c4.3-1.4,8.4-1.5,12.2-5.2c7.3-6.9,8.6-9.9,11.2-10.2c2.6-0.4,4.4,0.7,5.9,7.1
		c1.6,7.1,8.1,10.3,13.7,15.6c4.3,4.1,3.6,13.4-3.9,12.6c-13.6-1.4-12.2-16-26.5-15.6c-8.9,0.2-11.1,2-15.2,3.2
		c-3.7,1.1-5.2,0-5.5-1.5C616.5,389.7,620.7,388.3,625.2,386.8z"/>
	<path d="M642.6,686.6l0.6-2.7c0.1-0.2,0.4-0.5,0.6-0.4c0.2,0,0.4,0.2,0.4,0.4l0.2,2.6c0,0,10.6,0.2,10.7,1c0.1,0.5,1.7,9,2.5,13.4
		l0.5,2.7H613c-0.2-0.7-0.4-1.4-0.4-2.1c0-2,0.9-4.6,5.7-4.3h3.2c3.7,0,7.1-1.4,10-3.7c3.1-2.6,7.3-5.8,11-6.5L642.6,686.6z"/>
	<path class="st11" d="M612.7,701.2h45.1l0.5,2.5H613C612.8,702.8,612.7,702,612.7,701.2z"/>
	<path class="st9" d="M569.7,418.6l-2,3.8c-0.2,0.4-0.6,0.5-1,0.2c-0.1,0-0.1-0.1-0.2-0.2l-7-11.8c0,0,0.1,12.8,1,17.1
		c0.5,2.1,14,15.3,20.9,14.3c0.1-2,0.2-8.4,0.2-8.4l-5.9-3.4l-0.5-3.2c-0.1-0.6-0.5-1.2-1-1.6c-0.6-0.4-1.2-0.9-1.2-1.2
		c0-0.7-0.7-5.3-1.2-5.4C570.3,418,569.7,418.6,569.7,418.6z"/>
	<line class="st18" x1="603" y1="364.8" x2="626.7" y2="353.1"/>
	<path class="st17" d="M601.2,358.4L601.2,358.4c0.4-0.1,0.9,0,1,0.4l4.2,9.7c0.1,0.4,0,0.9-0.4,1l0,0c-0.4,0.1-0.9,0-1-0.4
		l-4.2-9.7C600.6,359,600.8,358.5,601.2,358.4z"/>
	<path class="st9" d="M632,357.3c0.4,3.7-1.4,7-3.7,7.1c-2.3,0.1-4.2-2.8-4.6-6.5c-0.4-3.7,0.9-6.9,3.3-7S631.6,353.4,632,357.3z"/>
	<path class="st31" d="M634.6,395.2c0,0-13.4,0.9-10.2,21.6c1.7,11.3,4.1,22.5,7,33.6l-31.8-2.2c2.5,0.1,8,6.5,9.7,8
		c5.1,4.3,10.2,8.4,15.4,12.6c10.7,8.5,22.7,10.1,24.8-6.3c2-14.7,2.6-29.4,2.1-44.2C651.1,409.7,647.5,393,634.6,395.2z"/>
	<path class="st28" d="M579.5,431.8c0.7,0.5,9.6,1.4,9.6,2.1c0,0.7-3.8,12.1-3.8,12.1l-10.6-5.8L579.5,431.8z"/>
	<path class="st25" d="M634.6,391.8c0,0-16.4,4.3-13.2,25c3.2,20.7,5.3,28,5.3,28s-40-14-40.7-13.3c-0.6,0.7-5.4,13.7-5.4,13.7
		s46.2,24,51.2,25.9c2.7,1,14.5,2.7,16.1-14.5c1-13.9,3.9-31.9,3.6-41.6C651.1,406.3,647.5,389.5,634.6,391.8z"/>
</g>
<rect class="st32" width="1024" height="768"/>
</svg>
